# Blender 3.4.1
# www.blender.org
mtllib Queen.mtl
o LP_Queen
v -0.669312 5.746130 -0.670604
v -0.946551 5.746130 -0.000001
v -0.665525 5.808340 -0.000000
v -0.470596 5.808340 -0.471505
v 0.000000 5.746130 -0.948377
v 0.000000 5.808340 -0.666808
v -0.654624 5.538921 -0.655889
v -0.925780 5.538921 -0.000001
v -0.669313 5.746130 0.670604
v -0.470597 5.808340 0.471505
v -0.716893 6.381514 -0.000001
v -0.506919 6.381514 -0.507898
v 0.669313 5.746130 -0.670604
v 0.470597 5.808340 -0.471505
v 0.000000 5.538921 -0.927566
v 0.000000 6.381514 -0.718276
v -0.933663 5.389114 -0.935466
v -1.320400 5.389114 -0.000001
v -0.654626 5.538921 0.655888
v -0.000000 5.746130 0.948377
v -0.000000 5.808340 0.666809
v -0.506920 6.381514 0.507898
v -1.233055 7.043627 0.009881
v -0.871900 7.043627 -0.863702
v 0.946551 5.746130 0.000000
v 0.665525 5.808340 0.000000
v 0.654625 5.538921 -0.655888
v 0.506920 6.381514 -0.507898
v 0.000000 5.389114 -1.322947
v 0.000000 7.043627 -1.225551
v -0.469914 4.943182 -0.470822
v -0.664560 4.943182 -0.000000
v -0.933665 5.389114 0.935465
v -0.000000 5.538921 0.927566
v 0.669313 5.746130 0.670604
v 0.470597 5.808340 0.471505
v -0.000000 6.381514 0.718276
v -0.871902 7.043627 0.883466
v 0.925780 5.538921 0.000000
v 0.716893 6.381514 0.000000
v 0.933664 5.389114 -0.935465
v 0.871902 7.043627 -0.863701
v 0.000000 4.943182 -0.665842
v -0.480535 3.181356 -0.481463
v -0.679580 3.181356 -0.000000
v -0.469915 4.943182 0.470821
v -0.000000 5.389114 1.322948
v 0.654625 5.538921 0.655888
v 0.506920 6.381514 0.507898
v -0.000000 7.043627 1.245317
v 1.320400 5.389114 0.000000
v 1.233055 7.043627 0.009883
v 0.469915 4.943182 -0.470821
v 0.000000 3.181356 -0.680891
v -0.586067 2.509916 -0.587199
v -0.828825 2.509916 -0.000001
v -0.480536 3.181356 0.481462
v -0.000000 4.943182 0.665842
v 0.933664 5.389114 0.935465
v 0.871902 7.043627 0.883466
v -0.620085 7.238986 0.009882
v -0.438070 7.238986 -0.430387
v 0.664560 4.943182 0.000000
v 0.620085 7.238986 0.009883
v 0.480536 3.181356 -0.481462
v 0.000000 2.509916 -0.830423
v -0.000000 7.238986 -0.612191
v -0.727979 2.094873 -0.729385
v -1.029519 2.094873 -0.000001
v -0.586068 2.509916 0.587198
v -0.000000 3.181356 0.680891
v 0.469915 4.943182 0.470822
v 0.438071 7.238986 0.450152
v -0.438071 7.238986 0.450152
v -0.252482 7.609672 0.010070
v -0.178700 7.609363 -0.169558
v 0.679580 3.181356 0.000000
v 0.586068 2.509916 -0.587198
v 0.438071 7.238986 -0.430387
v 0.000000 2.094873 -1.031505
v 0.000021 7.609941 -0.243827
v -1.281668 1.982141 -0.000001
v -0.906275 1.982141 -0.908025
v -0.727980 2.094873 0.729384
v -0.000000 2.509916 0.830424
v 0.480536 3.181356 0.481463
v 1.384391 7.543008 0.508966
v -0.000000 7.238986 0.631957
v -0.178812 7.609745 0.187997
v 0.828825 2.509916 0.000000
v 0.727980 2.094873 -0.729384
v 0.000000 1.982141 -1.284140
v -1.264953 1.893088 -0.000001
v -0.894456 1.893088 -0.896183
v -0.906277 1.982141 0.908024
v -0.000000 2.094873 1.031505
v 0.586068 2.509916 0.587198
v 0.000021 7.610863 0.262536
v 1.029519 2.094873 0.000000
v 0.252525 7.609672 0.010070
v 0.178744 7.609363 -0.169558
v 0.906276 1.982141 -0.908024
v 0.000000 1.893088 -1.267393
v -1.896674 1.120478 -0.000001
v -1.341149 1.120478 -1.343739
v -0.894457 1.893088 0.896182
v -0.000000 1.982141 1.284141
v 0.727980 2.094873 0.729385
v 0.176679 7.610791 0.189333
v 1.281668 1.982141 0.000000
v 0.894457 1.893088 -0.896182
v -0.000000 1.120478 -1.900332
v -1.593639 0.643972 -0.000001
v -1.126871 0.643972 -1.129047
v -1.341152 1.120478 1.343738
v -0.000000 1.893088 1.267394
v 0.906276 1.982141 0.908025
v 1.264953 1.893088 0.000000
v 1.341151 1.120478 -1.343737
v -0.000000 0.643972 -1.596712
v -1.890873 0.436464 -0.000001
v -1.337047 0.436464 -1.339629
v -1.126873 0.643972 1.129046
v -0.000001 1.120478 1.900333
v 0.894457 1.893088 0.896183
v 1.896673 1.120478 0.000000
v 1.126873 0.643972 -1.129046
v -0.000000 0.436464 -1.894520
v -2.010441 0.029522 -0.000001
v -1.421595 0.029522 -1.424340
v -1.337050 0.436464 1.339628
v -0.000001 0.643972 1.596713
v 1.341151 1.120478 1.343739
v 1.593639 0.643972 0.000000
v 1.337049 0.436464 -1.339628
v -0.000000 0.029522 -2.014318
v 1.421596 0.029522 -1.424338
v 2.010441 0.029522 0.000000
v 1.421596 0.029522 1.424339
v -0.000001 0.029522 2.014319
v -1.421597 0.029522 1.424338
v -0.000001 0.436464 1.894521
v 1.126873 0.643972 1.129047
v 1.890873 0.436464 0.000000
v 1.337049 0.436464 1.339629
v -0.326809 7.788207 0.009164
v -0.231082 8.019311 0.009164
v -0.163394 8.019311 -0.154252
v -0.231082 7.788207 -0.221940
v -0.231082 7.788207 0.240268
v -0.163394 8.019311 0.172579
v 0.000022 8.115037 0.009164
v 0.000022 8.019311 -0.221940
v 0.000022 7.788207 -0.317667
v 0.000022 7.788207 0.335994
v 0.000022 8.019311 0.240268
v 0.163437 8.019311 -0.154252
v 0.231126 7.788207 -0.221940
v 0.231126 7.788207 0.240268
v 0.163437 8.019311 0.172579
v 0.231126 8.019311 0.009164
v 0.326852 7.788207 0.009164
v 0.555392 7.543008 1.305875
v -0.623370 7.543008 1.344433
v -1.320810 7.543008 0.619095
v -1.358007 7.543008 -0.608400
v -0.576874 7.543008 -1.343037
v 0.558240 7.543008 -1.360323
v 1.393730 7.543008 -0.628548
vn -0.2153 0.9725 -0.0890
vn -0.0892 0.9726 -0.2149
vn -0.9202 -0.0922 -0.3804
vn -0.2153 0.9725 0.0890
vn -0.9210 -0.0825 -0.3808
vn 0.0892 0.9726 -0.2149
vn -0.3817 -0.0924 -0.9197
vn -0.3820 -0.0827 -0.9205
vn -0.3512 0.9250 -0.1452
vn -0.9202 -0.0922 0.3804
vn -0.0892 0.9726 0.2149
vn -0.9210 -0.0825 0.3807
vn -0.7518 -0.5815 -0.3108
vn 0.2153 0.9725 -0.0890
vn 0.3817 -0.0924 -0.9197
vn 0.3820 -0.0827 -0.9205
vn -0.1455 0.9252 -0.3505
vn -0.3129 -0.5776 -0.7539
vn -0.5477 -0.8055 -0.2264
vn -0.3512 0.9250 0.1452
vn -0.3817 -0.0924 0.9197
vn 0.0892 0.9726 0.2149
vn -0.3820 -0.0827 0.9205
vn -0.7478 -0.5876 0.3091
vn 0.2905 0.9493 0.1201
vn 0.2153 0.9725 0.0890
vn 0.9202 -0.0922 -0.3804
vn 0.9210 -0.0825 -0.3808
vn 0.1455 0.9252 -0.3505
vn 0.3129 -0.5776 -0.7539
vn -0.2270 -0.8059 -0.5469
vn -0.2336 0.7328 0.6391
vn -0.9241 0.0079 -0.3820
vn -0.5477 -0.8055 0.2264
vn -0.1455 0.9252 0.3505
vn 0.3817 -0.0924 0.9197
vn 0.3820 -0.0827 0.9205
vn -0.3088 -0.5923 0.7441
vn -0.2343 0.7350 -0.6363
vn 0.9202 -0.0922 0.3804
vn 0.9210 -0.0825 0.3808
vn 0.3512 0.9250 -0.1452
vn 0.7518 -0.5815 -0.3108
vn 0.2270 -0.8059 -0.5469
vn 0.3017 0.9452 -0.1247
vn -0.3833 0.0079 -0.9236
vn -0.9052 0.2012 -0.3742
vn -0.9241 0.0079 0.3820
vn -0.2270 -0.8059 0.5469
vn 0.1455 0.9252 0.3505
vn 0.3088 -0.5923 0.7441
vn 0.1230 0.9471 -0.2965
vn 0.3512 0.9250 0.1452
vn 0.7478 -0.5876 0.3091
vn 0.5477 -0.8055 -0.2264
vn 0.3550 0.6663 0.6558
vn 0.3833 0.0079 -0.9236
vn -0.3755 0.2015 -0.9047
vn 0.7706 -0.5519 0.3186
vn -0.8437 0.4080 -0.3488
vn -0.9052 0.2012 0.3742
vn -0.3833 0.0079 0.9236
vn 0.2270 -0.8059 0.5469
vn -0.1311 0.9397 -0.3159
vn -0.6814 0.6756 -0.2815
vn 0.5477 -0.8055 0.2264
vn 0.9241 0.0079 -0.3820
vn 0.3755 0.2015 -0.9047
vn -0.3499 0.4084 -0.8431
vn -0.2830 0.6763 -0.6801
vn -0.4025 0.9002 -0.1664
vn -0.8437 0.4080 0.3488
vn -0.3755 0.2015 0.9047
vn 0.3833 0.0079 0.9236
vn -0.6813 0.6756 0.2817
vn 0.9241 0.0079 0.3820
vn 0.9052 0.2012 -0.3742
vn 0.3499 0.4084 -0.8431
vn 0.2830 0.6762 -0.6801
vn -0.1667 0.9004 -0.4018
vn -0.9105 -0.1709 -0.3764
vn -0.4025 0.9002 0.1664
vn -0.3499 0.4084 0.8431
vn 0.3755 0.2015 0.9047
vn -0.2835 0.6768 0.6794
vn 0.9052 0.2012 0.3742
vn 0.8437 0.4080 -0.3488
vn 0.6814 0.6756 -0.2815
vn 0.1667 0.9004 -0.4018
vn -0.3777 -0.1711 -0.9100
vn -0.7373 0.6029 -0.3048
vn -0.9105 -0.1709 0.3764
vn -0.1667 0.9004 0.4018
vn 0.3499 0.4084 0.8431
vn 0.2824 0.6760 0.6806
vn 0.8437 0.4080 0.3488
vn 0.6809 0.6758 0.2822
vn 0.4025 0.9002 -0.1664
vn 0.3777 -0.1711 -0.9100
vn -0.3057 0.6034 -0.7365
vn -0.7967 -0.5067 -0.3294
vn -0.7373 0.6029 0.3048
vn -0.3777 -0.1711 0.9100
vn 0.1667 0.9004 0.4018
vn 0.4025 0.9002 0.1664
vn 0.9105 -0.1709 -0.3764
vn 0.3057 0.6034 -0.7365
vn -0.3304 -0.5072 -0.7960
vn -0.5570 0.7979 -0.2303
vn -0.7967 -0.5067 0.3294
vn -0.3057 0.6034 0.7365
vn 0.3777 -0.1711 0.9100
vn 0.9105 -0.1709 0.3764
vn 0.7373 0.6029 -0.3048
vn 0.3304 -0.5072 -0.7960
vn -0.2309 0.7983 -0.5562
vn -0.8918 0.2620 -0.3687
vn -0.5570 0.7979 0.2303
vn -0.3304 -0.5072 0.7960
vn 0.3057 0.6034 0.7365
vn 0.7373 0.6029 0.3048
vn 0.7967 -0.5067 -0.3294
vn 0.2309 0.7983 -0.5562
vn -0.3699 0.2624 -0.8913
vn -0.0000 -1.0000 -0.0000
vn -0.8918 0.2620 0.3687
vn -0.2309 0.7983 0.5562
vn 0.3304 -0.5072 0.7960
vn 0.7967 -0.5067 0.3294
vn 0.5570 0.7979 -0.2303
vn 0.3699 0.2624 -0.8913
vn 0.8918 0.2620 -0.3687
vn 0.8918 0.2620 0.3687
vn 0.3699 0.2624 0.8913
vn -0.3699 0.2624 0.8913
vn 0.2309 0.7983 0.5562
vn 0.5570 0.7979 0.2303
vn -0.8629 0.3574 -0.3574
vn -0.8629 -0.3590 -0.3558
vn -0.8629 0.3574 0.3574
vn -0.3780 0.9125 -0.1566
vn -0.3574 0.3574 -0.8629
vn -0.8629 -0.3574 0.3574
vn -0.3574 -0.3574 -0.8629
vn -0.3574 0.3574 0.8629
vn -0.3780 0.9125 0.1566
vn -0.1566 0.9125 -0.3780
vn 0.3574 0.3574 -0.8629
vn -0.3574 -0.3574 0.8629
vn 0.3574 -0.3574 -0.8629
vn 0.3574 0.3574 0.8629
vn -0.1566 0.9125 0.3780
vn 0.1566 0.9125 -0.3780
vn 0.8629 0.3574 -0.3574
vn 0.3574 -0.3574 0.8629
vn 0.8629 -0.3590 -0.3558
vn 0.8629 0.3574 0.3574
vn 0.1566 0.9125 0.3780
vn 0.3780 0.9125 -0.1566
vn 0.8598 -0.3617 0.3605
vn 0.3780 0.9125 0.1566
vn 0.2099 0.6586 -0.7226
vn -0.2966 0.9471 -0.1226
vn -0.2763 0.7418 0.6111
vn 0.6432 0.6894 -0.3331
vn -0.6648 0.7118 0.2267
vn 0.3375 -0.4740 0.8133
vn 0.6302 0.7398 0.2356
vn -0.3197 -0.5519 0.7702
vn -0.6581 0.6607 -0.3610
vn -0.7824 -0.5321 0.3235
vn 0.3173 -0.5610 -0.7646
vn -0.3199 -0.5509 -0.7708
vn -0.7556 -0.5758 -0.3124
vn 0.7266 -0.6179 -0.3004
vn 0.3486 0.6729 -0.6524
vn -0.6407 0.6939 0.3286
vn 0.1231 0.9470 0.2967
vn 0.6634 0.7130 -0.2271
vn -0.6793 0.6993 -0.2227
vn -0.1221 0.9479 0.2941
vn 0.6321 0.7087 0.3134
vn -0.3492 0.6723 -0.6527
vn -0.2793 0.9532 0.1155
vn 0.2346 0.7361 0.6349
s 0
f 1//1 2//1 3//1 4//1
f 5//2 1//2 4//2 6//2
f 7//3 8//3 2//3 1//3
f 2//4 9//4 10//4 3//4
f 4//5 3//5 11//5 12//5
f 13//6 5//6 6//6 14//6
f 15//7 7//7 1//7 5//7
f 6//8 4//8 12//8 16//8
f 17//9 18//9 8//9 7//9
f 8//10 19//10 9//10 2//10
f 9//11 20//11 21//11 10//11
f 3//12 10//12 22//12 11//12
f 12//13 11//13 23//13 24//13
f 25//14 13//14 14//14 26//14
f 27//15 15//15 5//15 13//15
f 14//16 6//16 16//16 28//16
f 29//17 17//17 7//17 15//17
f 16//18 12//18 24//18 30//18
f 31//19 32//19 18//19 17//19
f 18//20 33//20 19//20 8//20
f 19//21 34//21 20//21 9//21
f 20//22 35//22 36//22 21//22
f 10//23 21//23 37//23 22//23
f 11//24 22//24 38//24 23//24
f 166//25 61//25 62//25
f 35//26 25//26 26//26 36//26
f 39//27 27//27 13//27 25//27
f 26//28 14//28 28//28 40//28
f 41//29 29//29 15//29 27//29
f 28//30 16//30 30//30 42//30
f 43//31 31//31 17//31 29//31
f 166//32 23//32 61//32
f 44//33 45//33 32//33 31//33
f 32//34 46//34 33//34 18//34
f 33//35 47//35 34//35 19//35
f 34//36 48//36 35//36 20//36
f 21//37 36//37 49//37 37//37
f 22//38 37//38 50//38 38//38
f 61//39 23//39 165//39
f 48//40 39//40 25//40 35//40
f 36//41 26//41 40//41 49//41
f 51//42 41//42 27//42 39//42
f 40//43 28//43 42//43 52//43
f 53//44 43//44 29//44 41//44
f 165//45 74//45 61//45
f 54//46 44//46 31//46 43//46
f 55//47 56//47 45//47 44//47
f 45//48 57//48 46//48 32//48
f 46//49 58//49 47//49 33//49
f 47//50 59//50 48//50 34//50
f 37//51 49//51 60//51 50//51
f 164//52 88//52 74//52
f 59//53 51//53 39//53 48//53
f 49//54 40//54 52//54 60//54
f 63//55 53//55 41//55 51//55
f 165//56 38//56 74//56
f 65//57 54//57 43//57 53//57
f 66//58 55//58 44//58 54//58
f 87//59 60//59 52//59
f 68//60 69//60 56//60 55//60
f 56//61 70//61 57//61 45//61
f 57//62 71//62 58//62 46//62
f 58//63 72//63 59//63 47//63
f 88//64 163//64 73//64
f 76//65 62//65 61//65 75//65
f 72//66 63//66 51//66 59//66
f 77//67 65//67 53//67 63//67
f 78//68 66//68 54//68 65//68
f 80//69 68//69 55//69 66//69
f 81//70 67//70 62//70 76//70
f 82//71 69//71 68//71 83//71
f 69//72 84//72 70//72 56//72
f 70//73 85//73 71//73 57//73
f 71//74 86//74 72//74 58//74
f 75//75 61//75 74//75 89//75
f 86//76 77//76 63//76 72//76
f 90//77 78//77 65//77 77//77
f 91//78 80//78 66//78 78//78
f 101//79 79//79 67//79 81//79
f 83//80 68//80 80//80 92//80
f 93//81 82//81 83//81 94//81
f 95//82 84//82 69//82 82//82
f 84//83 96//83 85//83 70//83
f 85//84 97//84 86//84 71//84
f 89//85 74//85 88//85 98//85
f 97//86 90//86 77//86 86//86
f 99//87 91//87 78//87 90//87
f 100//88 64//88 79//88 101//88
f 92//89 80//89 91//89 102//89
f 94//90 83//90 92//90 103//90
f 104//91 93//91 94//91 105//91
f 106//92 95//92 82//92 93//92
f 107//93 96//93 84//93 95//93
f 96//94 108//94 97//94 85//94
f 98//95 88//95 73//95 109//95
f 108//96 99//96 90//96 97//96
f 109//97 73//97 64//97 100//97
f 102//98 91//98 99//98 110//98
f 103//99 92//99 102//99 111//99
f 105//100 94//100 103//100 112//100
f 113//101 104//101 105//101 114//101
f 115//102 106//102 93//102 104//102
f 116//103 107//103 95//103 106//103
f 117//104 108//104 96//104 107//104
f 110//105 99//105 108//105 117//105
f 111//106 102//106 110//106 118//106
f 112//107 103//107 111//107 119//107
f 114//108 105//108 112//108 120//108
f 121//109 113//109 114//109 122//109
f 123//110 115//110 104//110 113//110
f 124//111 116//111 106//111 115//111
f 125//112 117//112 107//112 116//112
f 118//113 110//113 117//113 125//113
f 119//114 111//114 118//114 126//114
f 120//115 112//115 119//115 127//115
f 122//116 114//116 120//116 128//116
f 129//117 121//117 122//117 130//117
f 131//118 123//118 113//118 121//118
f 132//119 124//119 115//119 123//119
f 133//120 125//120 116//120 124//120
f 126//121 118//121 125//121 133//121
f 127//122 119//122 126//122 134//122
f 128//123 120//123 127//123 135//123
f 130//124 122//124 128//124 136//124
f 129//125 130//125 136//125 137//125 138//125 139//125 140//125 141//125
f 141//126 131//126 121//126 129//126
f 142//127 132//127 123//127 131//127
f 143//128 133//128 124//128 132//128
f 134//129 126//129 133//129 143//129
f 135//130 127//130 134//130 144//130
f 136//131 128//131 135//131 137//131
f 137//132 135//132 144//132 138//132
f 138//133 144//133 145//133 139//133
f 139//134 145//134 142//134 140//134
f 140//135 142//135 131//135 141//135
f 145//136 143//136 132//136 142//136
f 144//137 134//137 143//137 145//137
f 146//138 147//138 148//138 149//138
f 75//139 146//139 149//139 76//139
f 150//140 151//140 147//140 146//140
f 147//141 152//141 148//141
f 149//142 148//142 153//142 154//142
f 89//143 150//143 146//143 75//143
f 76//144 149//144 154//144 81//144
f 155//145 156//145 151//145 150//145
f 151//146 152//146 147//146
f 148//147 152//147 153//147
f 154//148 153//148 157//148 158//148
f 98//149 155//149 150//149 89//149
f 81//150 154//150 158//150 101//150
f 159//151 160//151 156//151 155//151
f 156//152 152//152 151//152
f 153//153 152//153 157//153
f 158//154 157//154 161//154 162//154
f 109//155 159//155 155//155 98//155
f 101//156 158//156 162//156 100//156
f 162//157 161//157 160//157 159//157
f 160//158 152//158 156//158
f 157//159 152//159 161//159
f 100//160 162//160 159//160 109//160
f 161//161 152//161 160//161
f 52//162 64//162 87//162
f 64//163 73//163 87//163
f 87//164 73//164 60//164
f 60//165 73//165 163//165
f 88//166 50//166 163//166
f 50//167 60//167 163//167
f 88//168 164//168 50//168
f 38//169 50//169 164//169
f 38//170 164//170 74//170
f 165//171 23//171 38//171
f 168//172 42//172 30//172
f 167//173 30//173 24//173
f 24//174 23//174 166//174
f 169//175 52//175 42//175
f 62//176 24//176 166//176
f 167//177 24//177 62//177
f 167//178 62//178 67//178
f 67//179 30//179 167//179
f 168//180 30//180 67//180
f 168//181 67//181 79//181
f 79//182 42//182 168//182
f 42//183 79//183 169//183
f 79//184 64//184 169//184
f 52//185 169//185 64//185
