# Blender 3.4.1
# www.blender.org
mtllib Rook.mtl
o Rook
v -1.060661 0.000000 1.060660
v -1.500000 0.000000 -0.000001
v -1.060659 0.000000 -1.060662
v -0.997580 0.433112 0.997578
v -1.410790 0.433112 -0.000001
v -0.997578 0.433112 -0.997580
v -1.000640 0.800578 1.000639
v -1.415118 0.800578 -0.000001
v -1.000638 0.800578 -1.000641
v -0.840766 0.587637 0.840765
v -1.189022 0.587637 -0.000001
v -0.840764 0.587637 -0.840767
v -0.682599 1.576897 0.682598
v -0.965340 1.576897 -0.000001
v -0.682597 1.576897 -0.682599
v -0.779728 1.480093 0.779727
v -1.102701 1.480093 -0.000001
v -0.779727 1.480093 -0.779729
v -0.769559 1.185755 0.769558
v -1.088321 1.185755 -0.000001
v -0.769558 1.185755 -0.769560
v -0.536205 3.650993 0.536205
v -0.758308 3.650993 -0.000001
v -0.536204 3.650993 -0.536206
v -0.589697 3.703281 0.589696
v -0.833957 3.703281 -0.000001
v -0.589696 3.703281 -0.589697
v -0.566402 3.772998 0.566401
v -0.801013 3.772998 -0.000001
v -0.566401 3.772998 -0.566402
v -0.747264 3.868860 0.747263
v -1.056790 3.868860 -0.000001
v -0.747262 3.868860 -0.747265
v -0.584014 4.287165 0.584014
v -0.825920 4.287165 -0.000001
v -0.584013 4.287165 -0.584015
v -0.747264 4.287165 0.747263
v -1.056790 4.287165 -0.000001
v -0.747262 4.287165 -0.747265
v -0.584014 3.958071 0.584014
v -0.825920 3.958071 -0.000001
v -0.584013 3.958071 -0.584015
v -0.249088 4.287165 0.953614
v -0.498176 4.287165 0.850439
v -0.953615 4.287165 0.249087
v -0.850439 4.287165 0.498175
v -0.953614 4.287165 -0.249089
v -0.850438 4.287165 -0.498177
v -0.498175 4.287165 -0.850440
v -0.249087 4.287165 -0.953615
v -0.194672 4.287165 0.745285
v -0.389343 4.287165 0.664649
v -0.745285 4.287165 0.194671
v -0.664650 4.287165 0.389342
v -0.745285 4.287165 -0.194672
v -0.664649 4.287165 -0.389344
v -0.389342 4.287165 -0.664650
v -0.194671 4.287165 -0.745285
v -0.638431 4.287165 0.638430
v -0.692847 4.287165 0.692847
v -0.902877 4.287165 -0.000001
v -0.979834 4.287165 -0.000001
v -0.638429 4.287165 -0.638431
v -0.692846 4.287165 -0.692848
v -0.425620 4.287165 -0.726580
v -0.461897 4.287165 -0.788510
v -0.212810 4.287165 -0.814729
v -0.230949 4.287165 -0.884172
v -0.814728 4.287165 -0.212811
v -0.884171 4.287165 -0.230950
v -0.726579 4.287165 -0.425621
v -0.788508 4.287165 -0.461899
v -0.726579 4.287165 0.425620
v -0.788509 4.287165 0.461897
v -0.814728 4.287165 0.212809
v -0.884171 4.287165 0.230948
v -0.212810 4.287165 0.814728
v -0.230949 4.287165 0.884171
v -0.425621 4.287165 0.726579
v -0.461898 4.287165 0.788509
v -0.498175 4.016843 -0.850440
v -0.249087 4.016843 -0.953615
v -0.389342 4.016843 -0.664650
v -0.194671 4.016843 -0.745285
v -0.461897 4.016843 -0.788510
v -0.425620 4.016843 -0.726580
v -0.230949 4.016843 -0.884172
v -0.212810 4.016843 -0.814729
v -0.953614 4.024346 -0.249089
v -0.850438 4.024346 -0.498177
v -0.745285 4.024346 -0.194672
v -0.664649 4.024346 -0.389344
v -0.884171 4.024346 -0.230950
v -0.814728 4.024346 -0.212811
v -0.788508 4.024346 -0.461899
v -0.726579 4.024346 -0.425621
v -0.953615 4.047002 0.249087
v -0.850439 4.047002 0.498175
v -0.745285 4.047002 0.194671
v -0.664650 4.047002 0.389342
v -0.788509 4.047002 0.461897
v -0.726579 4.047002 0.425620
v -0.884171 4.047002 0.230948
v -0.814728 4.047002 0.212809
v -0.249088 4.047499 0.953614
v -0.498176 4.047499 0.850439
v -0.194672 4.047499 0.745285
v -0.389343 4.047499 0.664649
v -0.230949 4.047499 0.884171
v -0.212810 4.047499 0.814728
v -0.461898 4.047499 0.788509
v -0.425621 4.047499 0.726579
v 0.000000 0.000000 -1.500000
v 0.000000 0.000000 1.500000
v 1.060661 0.000000 1.060660
v 1.500000 0.000000 -0.000001
v 1.060659 0.000000 -1.060662
v 0.000000 0.433112 -1.410790
v 0.000000 0.433112 1.410790
v 0.997580 0.433112 0.997578
v 1.410790 0.433112 -0.000001
v 0.997578 0.433112 -0.997580
v 0.000000 0.800578 -1.415118
v 0.000000 0.800578 1.415118
v 1.000640 0.800578 1.000639
v 1.415118 0.800578 -0.000001
v 1.000638 0.800578 -1.000641
v 0.000000 0.587637 -1.189022
v 0.000000 0.587637 1.189022
v 0.840766 0.587637 0.840765
v 1.189022 0.587637 -0.000001
v 0.840764 0.587637 -0.840767
v 0.000000 1.576897 -0.965340
v 0.000000 1.576897 0.965340
v 0.682599 1.576897 0.682598
v 0.965340 1.576897 -0.000001
v 0.682597 1.576897 -0.682599
v 0.000000 1.480093 -1.102702
v 0.000000 1.480093 1.102701
v 0.779728 1.480093 0.779727
v 1.102701 1.480093 -0.000001
v 0.779727 1.480093 -0.779729
v 0.000000 1.185755 1.088321
v 0.769559 1.185755 0.769558
v 1.088321 1.185755 -0.000001
v 0.769558 1.185755 -0.769560
v 0.000000 1.185755 -1.088321
v 0.000000 3.650993 -0.758309
v 0.000000 3.650993 0.758308
v 0.536205 3.650993 0.536205
v 0.758308 3.650993 -0.000001
v 0.536204 3.650993 -0.536206
v 0.000000 3.703281 -0.833957
v 0.000000 3.703281 0.833957
v 0.589697 3.703281 0.589696
v 0.833957 3.703281 -0.000001
v 0.589696 3.703281 -0.589697
v 0.000000 3.772998 -0.801013
v 0.000000 3.772998 0.801012
v 0.566402 3.772998 0.566401
v 0.801013 3.772998 -0.000001
v 0.566401 3.772998 -0.566402
v 0.000000 3.868860 -1.056790
v 0.000000 3.868860 1.056790
v 0.747264 3.868860 0.747263
v 1.056790 3.868860 -0.000001
v 0.747262 3.868860 -0.747265
v 0.000000 4.287165 -0.825921
v 0.000000 4.287165 0.825920
v 0.584014 4.287165 0.584014
v 0.825920 4.287165 -0.000001
v 0.584013 4.287165 -0.584015
v 0.000000 4.287165 1.056790
v 0.747264 4.287165 0.747263
v 1.056790 4.287165 -0.000001
v 0.747262 4.287165 -0.747265
v 0.000000 4.287165 -1.056790
v 0.000000 3.958071 0.825920
v 0.584014 3.958071 0.584014
v 0.825920 3.958071 -0.000001
v 0.584013 3.958071 -0.584015
v 0.000000 3.958071 -0.825921
v 0.249088 4.287165 0.953614
v 0.498176 4.287165 0.850439
v 0.953615 4.287165 0.249087
v 0.850439 4.287165 0.498175
v 0.953614 4.287165 -0.249089
v 0.850438 4.287165 -0.498177
v 0.498175 4.287165 -0.850440
v 0.249087 4.287165 -0.953615
v 0.194672 4.287165 0.745285
v 0.389343 4.287165 0.664649
v 0.745285 4.287165 0.194671
v 0.664650 4.287165 0.389342
v 0.745285 4.287165 -0.194672
v 0.664649 4.287165 -0.389344
v 0.389342 4.287165 -0.664650
v 0.194671 4.287165 -0.745285
v 0.000000 4.287165 0.979833
v 0.000000 4.287165 0.902877
v 0.638431 4.287165 0.638430
v 0.692847 4.287165 0.692847
v 0.902877 4.287165 -0.000001
v 0.979834 4.287165 -0.000001
v 0.638429 4.287165 -0.638431
v 0.692846 4.287165 -0.692848
v 0.000000 4.287165 -0.902877
v 0.000000 4.287165 -0.979834
v 0.425620 4.287165 -0.726580
v 0.461897 4.287165 -0.788510
v 0.212810 4.287165 -0.814729
v 0.230949 4.287165 -0.884172
v 0.814728 4.287165 -0.212811
v 0.884171 4.287165 -0.230950
v 0.726579 4.287165 -0.425621
v 0.788508 4.287165 -0.461899
v 0.726579 4.287165 0.425620
v 0.788509 4.287165 0.461897
v 0.814728 4.287165 0.212809
v 0.884171 4.287165 0.230948
v 0.212810 4.287165 0.814728
v 0.230949 4.287165 0.884171
v 0.425621 4.287165 0.726579
v 0.461898 4.287165 0.788509
v 0.498175 4.016843 -0.850440
v 0.249087 4.016843 -0.953615
v 0.389342 4.016843 -0.664650
v 0.194671 4.016843 -0.745285
v 0.461897 4.016843 -0.788510
v 0.425620 4.016843 -0.726580
v 0.230949 4.016843 -0.884172
v 0.212810 4.016843 -0.814729
v 0.953614 4.024346 -0.249089
v 0.850438 4.024346 -0.498177
v 0.745285 4.024346 -0.194672
v 0.664649 4.024346 -0.389344
v 0.884171 4.024346 -0.230950
v 0.814728 4.024346 -0.212811
v 0.788508 4.024346 -0.461899
v 0.726579 4.024346 -0.425621
v 0.953615 4.047002 0.249087
v 0.850439 4.047002 0.498175
v 0.745285 4.047002 0.194671
v 0.664650 4.047002 0.389342
v 0.788509 4.047002 0.461897
v 0.726579 4.047002 0.425620
v 0.884171 4.047002 0.230948
v 0.814728 4.047002 0.212809
v 0.249088 4.047499 0.953614
v 0.498176 4.047499 0.850439
v 0.194672 4.047499 0.745285
v 0.389343 4.047499 0.664649
v 0.230949 4.047499 0.884171
v 0.212810 4.047499 0.814728
v 0.461898 4.047499 0.788509
v 0.425621 4.047499 0.726579
vn -0.2732 -0.7003 0.6595
vn -0.6595 -0.7003 0.2732
vn -0.9076 0.1869 0.3759
vn -0.3759 0.1869 0.9076
vn -0.3823 -0.0451 -0.9229
vn -0.7271 0.6169 -0.3012
vn -0.3012 0.6169 -0.7271
vn -0.2304 0.7984 -0.5563
vn -0.5563 0.7984 -0.2304
vn -0.9229 -0.0451 -0.3823
vn -0.3823 -0.0451 0.9229
vn -0.3012 0.6169 0.7271
vn -0.2304 0.7984 0.5563
vn -0.9229 -0.0451 0.3823
vn -0.7271 0.6169 0.3012
vn -0.5563 0.7984 0.2304
vn -0.2321 0.7951 -0.5603
vn -0.5603 0.7951 -0.2321
vn -0.6595 -0.7003 -0.2732
vn -0.2732 -0.7003 -0.6595
vn -0.3759 0.1869 -0.9076
vn -0.9076 0.1869 -0.3759
vn -0.0000 1.0000 -0.0000
vn -0.5603 0.7951 0.2321
vn -0.2321 0.7951 0.5603
vn -0.3811 0.0918 0.9200
vn -0.9200 0.0918 0.3811
vn -0.3811 0.0918 -0.9200
vn -0.9200 0.0918 -0.3811
vn -0.2292 -0.8007 0.5535
vn -0.2292 -0.8007 -0.5535
vn -0.5535 -0.8007 0.2292
vn -0.5535 -0.8007 -0.2292
vn -0.8467 0.4001 -0.3507
vn -0.3507 0.4001 0.8467
vn -0.3507 0.4001 -0.8467
vn -0.8467 0.4001 0.3507
vn -0.3473 -0.9267 0.1439
vn -0.3473 -0.9267 -0.1439
vn -0.1439 -0.9267 0.3473
vn -0.1439 -0.9267 -0.3473
vn -0.3827 -0.0000 -0.9239
vn -0.3827 -0.0000 0.9239
vn -0.0000 -1.0000 -0.0000
vn 0.9239 -0.0000 0.3827
vn 0.8629 -0.0000 -0.5054
vn -0.9675 -0.0000 0.2527
vn -0.5055 -0.0000 0.8629
vn 0.2527 -0.0000 -0.9675
vn -0.5054 -0.0000 -0.8629
vn 0.2527 -0.0000 0.9675
vn 0.8629 -0.0000 0.5055
vn 0.8629 -0.0000 0.5054
vn -0.9675 -0.0000 -0.2527
vn -0.9239 -0.0000 -0.3827
vn -0.9239 -0.0000 0.3827
vn 0.9239 -0.0000 -0.3827
vn 0.3827 -0.0000 0.9239
vn 0.3827 -0.0000 -0.9239
vn 0.2732 -0.7003 0.6595
vn 0.6595 -0.7003 0.2732
vn 0.9076 0.1869 0.3759
vn 0.3759 0.1869 0.9076
vn 0.3823 -0.0451 -0.9229
vn 0.7271 0.6169 -0.3012
vn 0.3012 0.6169 -0.7271
vn 0.2304 0.7984 -0.5563
vn 0.5563 0.7984 -0.2304
vn 0.9229 -0.0451 -0.3823
vn 0.3823 -0.0451 0.9229
vn 0.3012 0.6169 0.7271
vn 0.2304 0.7984 0.5563
vn 0.9229 -0.0451 0.3823
vn 0.7271 0.6169 0.3012
vn 0.5563 0.7984 0.2304
vn 0.2321 0.7951 -0.5603
vn 0.5603 0.7951 -0.2321
vn 0.6595 -0.7003 -0.2732
vn 0.2732 -0.7003 -0.6595
vn 0.3759 0.1869 -0.9076
vn 0.9076 0.1869 -0.3759
vn 0.5603 0.7951 0.2321
vn 0.2321 0.7951 0.5603
vn 0.3811 0.0918 0.9200
vn 0.9200 0.0918 0.3811
vn 0.3811 0.0918 -0.9200
vn 0.9200 0.0918 -0.3811
vn 0.2292 -0.8007 0.5535
vn 0.2292 -0.8007 -0.5535
vn 0.5535 -0.8007 0.2292
vn 0.5535 -0.8007 -0.2292
vn 0.8467 0.4001 -0.3507
vn 0.3507 0.4001 0.8467
vn 0.3507 0.4001 -0.8467
vn 0.8467 0.4001 0.3507
vn 0.3473 -0.9267 0.1439
vn 0.3473 -0.9267 -0.1439
vn 0.1439 -0.9267 0.3473
vn 0.1439 -0.9267 -0.3473
vn -0.8629 -0.0000 -0.5054
vn 0.9675 -0.0000 0.2527
vn 0.5055 -0.0000 0.8629
vn -0.2527 -0.0000 -0.9675
vn 0.5054 -0.0000 -0.8629
vn -0.2527 -0.0000 0.9675
vn -0.8629 -0.0000 0.5055
vn -0.8629 -0.0000 0.5054
vn 0.9675 -0.0000 -0.2527
s 0
f 129//1 124//1 7//1 10//1
f 10//2 7//2 8//2 11//2
f 1//3 4//3 5//3 2//3
f 114//4 119//4 4//4 1//4
f 21//5 18//5 138//5 147//5
f 8//6 20//6 21//6 9//6
f 9//7 21//7 147//7 123//7
f 6//8 12//8 128//8 118//8
f 5//9 11//9 12//9 6//9
f 20//10 17//10 18//10 21//10
f 143//11 139//11 16//11 19//11
f 124//12 143//12 19//12 7//12
f 119//13 129//13 10//13 4//13
f 19//14 16//14 17//14 20//14
f 7//15 19//15 20//15 8//15
f 4//16 10//16 11//16 5//16
f 18//17 15//17 133//17 138//17
f 17//18 14//18 15//18 18//18
f 11//19 8//19 9//19 12//19
f 12//20 9//20 123//20 128//20
f 3//21 6//21 118//21 113//21
f 2//22 5//22 6//22 3//22
f 178//23 182//23 42//23 41//23 40//23
f 16//24 13//24 14//24 17//24
f 139//25 134//25 13//25 16//25
f 13//26 134//26 149//26 22//26
f 14//27 13//27 22//27 23//27
f 133//28 15//28 24//28 148//28
f 15//29 14//29 23//29 24//29
f 22//30 149//30 154//30 25//30
f 148//31 24//31 27//31 153//31
f 23//32 22//32 25//32 26//32
f 24//33 23//33 26//33 27//33
f 27//34 26//34 29//34 30//34
f 25//35 154//35 159//35 28//35
f 153//36 27//36 30//36 158//36
f 26//37 25//37 28//37 29//37
f 29//38 28//38 31//38 32//38
f 30//39 29//39 32//39 33//39
f 28//40 159//40 164//40 31//40
f 158//41 30//41 33//41 163//41
f 82//42 50//42 177//42 163//42
f 106//43 44//43 37//43 31//43
f 80//23 60//23 37//23 44//23
f 76//23 62//23 38//23 45//23
f 72//23 64//23 39//23 48//23
f 68//23 208//23 177//23 50//23
f 1//44 2//44 3//44 113//44 114//44
f 55//45 35//45 41//45 91//45
f 106//43 31//43 164//43 105//43
f 64//23 66//23 49//23 39//23
f 36//23 57//23 65//23 63//23
f 63//23 65//23 66//23 64//23
f 66//46 65//46 86//46 85//46
f 58//47 67//47 88//47 84//47
f 58//23 168//23 207//23 67//23
f 67//23 207//23 208//23 68//23
f 62//23 70//23 47//23 38//23
f 71//48 72//48 95//48 96//48
f 35//23 55//23 69//23 61//23
f 61//23 69//23 70//23 62//23
f 47//49 70//49 93//49 89//49
f 56//23 36//23 63//23 71//23
f 71//23 63//23 64//23 72//23
f 60//23 74//23 46//23 37//23
f 74//50 73//50 102//50 101//50
f 34//23 54//23 73//23 59//23
f 59//23 73//23 74//23 60//23
f 53//51 75//51 104//51 99//51
f 53//23 35//23 61//23 75//23
f 75//23 61//23 62//23 76//23
f 199//23 78//23 43//23 173//23
f 169//23 51//23 77//23 200//23
f 200//23 77//23 78//23 199//23
f 80//52 44//52 106//52 111//52
f 79//53 80//53 111//53 112//53
f 52//23 34//23 59//23 79//23
f 79//23 59//23 60//23 80//23
f 85//23 87//23 82//23 81//23
f 83//23 84//23 88//23 86//23
f 86//23 88//23 87//23 85//23
f 49//46 66//46 85//46 81//46
f 67//47 68//47 87//47 88//47
f 68//47 50//47 82//47 87//47
f 65//46 57//46 83//46 86//46
f 33//42 81//42 82//42 163//42
f 81//42 33//42 39//42 49//42
f 93//23 95//23 90//23 89//23
f 91//23 92//23 96//23 94//23
f 94//23 96//23 95//23 93//23
f 72//48 48//48 90//48 95//48
f 69//49 55//49 91//49 94//49
f 56//48 71//48 96//48 92//48
f 70//49 69//49 94//49 93//49
f 101//23 103//23 97//23 98//23
f 100//23 99//23 104//23 102//23
f 102//23 104//23 103//23 101//23
f 46//50 74//50 101//50 98//50
f 75//51 76//51 103//51 104//51
f 76//51 45//51 97//51 103//51
f 73//50 54//50 100//50 102//50
f 109//23 111//23 106//23 105//23
f 107//23 108//23 112//23 110//23
f 110//23 112//23 111//23 109//23
f 77//54 51//54 107//54 110//54
f 52//53 79//53 112//53 108//53
f 78//54 77//54 110//54 109//54
f 43//54 78//54 109//54 105//54
f 48//55 39//55 33//55 90//55
f 90//55 33//55 32//55 89//55
f 38//55 47//55 89//55 32//55
f 45//56 38//56 32//56 97//56
f 97//56 32//56 31//56 98//56
f 37//56 46//56 98//56 31//56
f 35//57 53//57 99//57 41//57
f 100//57 40//57 41//57 99//57
f 54//57 34//57 40//57 100//57
f 42//45 92//45 91//45 41//45
f 36//45 56//45 92//45 42//45
f 36//58 42//58 83//58 57//58
f 182//58 84//58 83//58 42//58
f 58//58 84//58 182//58 168//58
f 164//43 173//43 43//43 105//43
f 40//59 108//59 107//59 178//59
f 169//59 178//59 107//59 51//59
f 52//59 108//59 40//59 34//59
f 129//60 130//60 125//60 124//60
f 130//61 131//61 126//61 125//61
f 115//62 116//62 121//62 120//62
f 114//63 115//63 120//63 119//63
f 146//64 147//64 138//64 142//64
f 126//65 127//65 146//65 145//65
f 127//66 123//66 147//66 146//66
f 122//67 118//67 128//67 132//67
f 121//68 122//68 132//68 131//68
f 145//69 146//69 142//69 141//69
f 143//70 144//70 140//70 139//70
f 124//71 125//71 144//71 143//71
f 119//72 120//72 130//72 129//72
f 144//73 145//73 141//73 140//73
f 125//74 126//74 145//74 144//74
f 120//75 121//75 131//75 130//75
f 142//76 138//76 133//76 137//76
f 141//77 142//77 137//77 136//77
f 131//78 132//78 127//78 126//78
f 132//79 128//79 123//79 127//79
f 117//80 113//80 118//80 122//80
f 116//81 117//81 122//81 121//81
f 178//23 179//23 180//23 181//23 182//23
f 140//82 141//82 136//82 135//82
f 139//83 140//83 135//83 134//83
f 135//84 150//84 149//84 134//84
f 136//85 151//85 150//85 135//85
f 133//86 148//86 152//86 137//86
f 137//87 152//87 151//87 136//87
f 150//88 155//88 154//88 149//88
f 148//89 153//89 157//89 152//89
f 151//90 156//90 155//90 150//90
f 152//91 157//91 156//91 151//91
f 157//92 162//92 161//92 156//92
f 155//93 160//93 159//93 154//93
f 153//94 158//94 162//94 157//94
f 156//95 161//95 160//95 155//95
f 161//96 166//96 165//96 160//96
f 162//97 167//97 166//97 161//97
f 160//98 165//98 164//98 159//98
f 158//99 163//99 167//99 162//99
f 226//59 163//59 177//59 190//59
f 250//58 165//58 174//58 184//58
f 224//23 184//23 174//23 202//23
f 220//23 185//23 175//23 204//23
f 216//23 188//23 176//23 206//23
f 212//23 190//23 177//23 208//23
f 115//44 114//44 113//44 117//44 116//44
f 195//56 235//56 180//56 171//56
f 250//58 249//58 164//58 165//58
f 206//23 176//23 189//23 210//23
f 172//23 205//23 209//23 197//23
f 205//23 206//23 210//23 209//23
f 210//100 229//100 230//100 209//100
f 198//101 228//101 232//101 211//101
f 198//23 211//23 207//23 168//23
f 211//23 212//23 208//23 207//23
f 204//23 175//23 187//23 214//23
f 215//102 240//102 239//102 216//102
f 171//23 203//23 213//23 195//23
f 203//23 204//23 214//23 213//23
f 187//103 233//103 237//103 214//103
f 196//23 215//23 205//23 172//23
f 215//23 216//23 206//23 205//23
f 202//23 174//23 186//23 218//23
f 218//104 245//104 246//104 217//104
f 170//23 201//23 217//23 194//23
f 201//23 202//23 218//23 217//23
f 193//105 243//105 248//105 219//105
f 193//23 219//23 203//23 171//23
f 219//23 220//23 204//23 203//23
f 199//23 173//23 183//23 222//23
f 169//23 200//23 221//23 191//23
f 200//23 199//23 222//23 221//23
f 224//106 255//106 250//106 184//106
f 223//107 256//107 255//107 224//107
f 192//23 223//23 201//23 170//23
f 223//23 224//23 202//23 201//23
f 229//23 225//23 226//23 231//23
f 227//23 230//23 232//23 228//23
f 230//23 229//23 231//23 232//23
f 189//100 225//100 229//100 210//100
f 211//101 232//101 231//101 212//101
f 212//101 231//101 226//101 190//101
f 209//100 230//100 227//100 197//100
f 167//59 163//59 226//59 225//59
f 225//59 189//59 176//59 167//59
f 237//23 233//23 234//23 239//23
f 235//23 238//23 240//23 236//23
f 238//23 237//23 239//23 240//23
f 216//102 239//102 234//102 188//102
f 213//103 238//103 235//103 195//103
f 196//102 236//102 240//102 215//102
f 214//103 237//103 238//103 213//103
f 245//23 242//23 241//23 247//23
f 244//23 246//23 248//23 243//23
f 246//23 245//23 247//23 248//23
f 186//104 242//104 245//104 218//104
f 219//105 248//105 247//105 220//105
f 220//105 247//105 241//105 185//105
f 217//104 246//104 244//104 194//104
f 253//23 249//23 250//23 255//23
f 251//23 254//23 256//23 252//23
f 254//23 253//23 255//23 256//23
f 221//108 254//108 251//108 191//108
f 192//107 252//107 256//107 223//107
f 222//108 253//108 254//108 221//108
f 183//108 249//108 253//108 222//108
f 188//57 234//57 167//57 176//57
f 234//57 233//57 166//57 167//57
f 175//57 166//57 233//57 187//57
f 185//45 241//45 166//45 175//45
f 241//45 242//45 165//45 166//45
f 174//45 165//45 242//45 186//45
f 171//55 180//55 243//55 193//55
f 244//55 243//55 180//55 179//55
f 194//55 244//55 179//55 170//55
f 181//56 180//56 235//56 236//56
f 172//56 181//56 236//56 196//56
f 172//43 197//43 227//43 181//43
f 182//43 181//43 227//43 228//43
f 198//43 168//43 182//43 228//43
f 164//58 249//58 183//58 173//58
f 179//42 178//42 251//42 252//42
f 169//42 191//42 251//42 178//42
f 192//42 170//42 179//42 252//42
