# Blender 3.4.1
# www.blender.org
mtllib pawn.mtl
o Pawn
v -0.527576 4.375114 0.000000
v -0.746105 3.847539 0.000000
v -0.527576 3.319963 0.000000
v -0.263788 4.375114 -0.456894
v -0.373053 3.847539 -0.646146
v -0.263788 3.319963 -0.456894
v 0.000000 3.063977 0.000000
v 0.263788 4.375114 -0.456894
v 0.373053 3.847539 -0.646146
v 0.263788 3.319963 -0.456894
v 0.527576 4.375114 0.000000
v 0.746105 3.847539 0.000000
v 0.527576 3.319963 0.000000
v 0.263788 4.375114 0.456894
v 0.373052 3.847539 0.646146
v 0.263788 3.319963 0.456894
v 0.000000 4.593644 0.000000
v -0.263788 4.375114 0.456894
v -0.373053 3.847539 0.646146
v -0.263788 3.319963 0.456894
v 0.000000 0.000000 -1.500000
v 1.060660 0.000000 -1.060660
v 1.500000 0.000000 -0.000000
v 1.060660 0.000000 1.060660
v -0.000000 0.000000 1.500000
v -1.060661 0.000000 1.060660
v -1.500000 0.000000 -0.000001
v -1.060659 0.000000 -1.060662
v 0.000000 0.433112 -1.410790
v 0.997579 0.433112 -0.997579
v 1.410790 0.433112 -0.000000
v 0.997579 0.433112 0.997579
v -0.000000 0.433112 1.410790
v -0.997580 0.433112 0.997578
v -1.410790 0.433112 -0.000001
v -0.997578 0.433112 -0.997580
v 0.000000 0.800578 -1.415118
v 1.000639 0.800578 -1.000639
v 1.415118 0.800578 -0.000000
v 1.000639 0.800578 1.000639
v -0.000000 0.800578 1.415118
v -1.000640 0.800578 1.000639
v -1.415118 0.800578 -0.000001
v -1.000638 0.800578 -1.000641
v 0.000000 0.587637 -1.189022
v 0.840765 0.587637 -0.840765
v 1.189022 0.587637 -0.000000
v 0.840765 0.587637 0.840765
v -0.000000 0.587637 1.189022
v -0.840766 0.587637 0.840765
v -1.189022 0.587637 -0.000001
v -0.840764 0.587637 -0.840767
v 0.000000 1.347075 -0.768130
v 0.543150 1.347075 -0.543150
v 0.768130 1.347075 -0.000000
v 0.543150 1.347075 0.543149
v -0.000000 1.347075 0.768129
v -0.543150 1.347075 0.543149
v -0.768129 1.347075 -0.000001
v -0.543149 1.347075 -0.543151
v 0.000000 1.263126 -0.956259
v 0.676177 1.263126 -0.676177
v 0.956259 1.263126 -0.000000
v 0.676177 1.263126 0.676177
v -0.000000 1.263126 0.956259
v -0.676177 1.263126 0.676177
v -0.956259 1.263126 -0.000001
v -0.676176 1.263126 -0.676178
v 0.667359 1.196811 -0.667359
v 0.943788 1.196811 -0.000000
v 0.667359 1.196811 0.667359
v -0.000000 1.196811 0.943788
v -0.667359 1.196811 0.667358
v -0.943788 1.196811 -0.000001
v -0.667358 1.196811 -0.667360
v 0.000000 1.196811 -0.943788
v 0.000000 3.217124 0.280450
v -0.198308 3.217124 0.198308
v -0.280450 3.217124 -0.000001
v -0.198308 3.217124 -0.198309
v 0.000000 3.217124 -0.280451
v 0.198309 3.217124 -0.198309
v 0.280451 3.217124 -0.000000
v 0.198309 3.217124 0.198308
v -0.000000 1.847076 0.524741
v -0.000000 2.347078 0.468708
v -0.000000 2.907371 0.456892
v -0.323072 2.907371 0.323071
v -0.331427 2.347078 0.331427
v -0.371049 1.847076 0.371048
v 0.371049 1.847076 0.371048
v 0.331427 2.347078 0.331427
v 0.323072 2.907371 0.323071
v 0.371049 1.847076 -0.371049
v 0.331427 2.347078 -0.331427
v 0.323072 2.907371 -0.323072
v 0.456892 2.907371 -0.000000
v 0.468709 2.347078 -0.000000
v 0.524742 1.847076 -0.000000
v -0.456892 2.907371 -0.000001
v -0.468709 2.347078 -0.000001
v -0.524742 1.847076 -0.000001
v -0.371048 1.847076 -0.371049
v -0.331426 2.347078 -0.331428
v -0.323071 2.907371 -0.323072
v 0.000000 2.907371 -0.456892
v 0.000000 2.347078 -0.468709
v 0.000000 1.847076 -0.524742
v -0.000000 3.007843 0.945555
v 0.668608 3.007843 0.668608
v 0.668608 3.007843 -0.668608
v -0.668607 3.007843 -0.668609
v -0.668609 3.007843 0.668608
v 0.945555 3.007843 -0.000000
v -0.945555 3.007843 -0.000001
v 0.000000 3.007843 -0.945555
vn -0.4233 -0.8724 -0.2444
vn -0.8152 0.3377 -0.4706
vn -0.8152 -0.3377 -0.4706
vn -0.3737 0.9021 -0.2157
vn -0.0000 0.3377 -0.9413
vn -0.0000 -0.3377 -0.9413
vn -0.0000 0.9021 -0.4315
vn -0.0000 -0.8724 -0.4888
vn 0.4233 -0.8724 -0.2444
vn 0.8152 0.3377 -0.4706
vn 0.8152 -0.3377 -0.4706
vn 0.3737 0.9021 -0.2157
vn 0.4233 -0.8724 0.2444
vn 0.8152 0.3377 0.4706
vn 0.8152 -0.3377 0.4706
vn 0.3737 0.9021 0.2157
vn -0.0000 -0.8724 0.4888
vn -0.0000 0.3377 0.9413
vn -0.0000 -0.3377 0.9413
vn -0.0000 0.9021 0.4315
vn -0.4233 -0.8724 0.2444
vn -0.8152 0.3377 0.4706
vn -0.8152 -0.3377 0.4706
vn -0.3737 0.9021 0.2157
vn 0.9102 -0.1712 -0.3770
vn 0.6595 -0.7003 0.2732
vn 0.2732 -0.7003 0.6595
vn 0.3759 0.1869 0.9076
vn 0.9076 0.1869 0.3759
vn 0.3770 -0.1712 -0.9102
vn -0.2732 -0.7003 0.6595
vn -0.6595 -0.7003 0.2732
vn -0.9076 0.1869 0.3759
vn -0.3759 0.1869 0.9076
vn -0.3770 -0.1712 -0.9102
vn -0.6218 0.7396 -0.2576
vn -0.2576 0.7396 -0.6218
vn -0.2304 0.7984 -0.5563
vn -0.5563 0.7984 -0.2304
vn -0.9102 -0.1712 -0.3770
vn 0.2576 0.7396 -0.6218
vn 0.6218 0.7396 -0.2576
vn 0.5563 0.7984 -0.2304
vn 0.2304 0.7984 -0.5563
vn -0.3770 -0.1712 0.9102
vn -0.2576 0.7396 0.6218
vn 0.6218 0.7396 0.2576
vn 0.5563 0.7984 0.2304
vn -0.2304 0.7984 0.5563
vn -0.9102 -0.1712 0.3770
vn -0.6218 0.7396 0.2576
vn 0.2576 0.7396 0.6218
vn 0.2304 0.7984 0.5563
vn -0.5563 0.7984 0.2304
vn 0.4018 0.9005 -0.1664
vn 0.4018 0.9005 0.1664
vn -0.1664 0.9005 -0.4018
vn -0.4018 0.9005 -0.1664
vn 0.1664 0.9005 -0.4018
vn 0.3770 -0.1712 0.9102
vn -0.6595 -0.7003 -0.2732
vn -0.2732 -0.7003 -0.6595
vn -0.3759 0.1869 -0.9076
vn -0.9076 0.1869 -0.3759
vn -0.0000 -1.0000 -0.0000
vn -0.1234 0.9466 0.2979
vn 0.3759 0.1869 -0.9076
vn 0.9076 0.1869 -0.3759
vn 0.6595 -0.7003 -0.2732
vn 0.2732 -0.7003 -0.6595
vn 0.9102 -0.1712 0.3770
vn -0.4018 0.9005 0.1664
vn 0.1664 0.9005 0.4018
vn -0.1664 0.9005 0.4018
vn -0.0000 1.0000 -0.0000
vn 0.1234 0.9466 0.2979
vn 0.2979 0.9466 -0.1234
vn -0.2979 0.9466 0.1234
vn -0.1234 0.9466 -0.2979
vn 0.2979 0.9466 0.1234
vn 0.1234 0.9466 -0.2979
vn -0.2979 0.9466 -0.1234
vn -0.8426 0.4102 -0.3490
vn -0.9190 0.1030 -0.3806
vn -0.9237 0.0195 -0.3826
vn 0.3490 0.4102 -0.8426
vn 0.3806 0.1030 -0.9190
vn 0.3826 0.0195 -0.9237
vn 0.8426 0.4102 0.3490
vn 0.9190 0.1030 0.3806
vn 0.9237 0.0195 0.3826
vn -0.3490 0.4102 -0.8426
vn -0.3806 0.1030 -0.9190
vn -0.3826 0.0195 -0.9237
vn -0.8426 0.4102 0.3490
vn -0.9190 0.1030 0.3806
vn -0.9237 0.0195 0.3826
vn 0.8426 0.4102 -0.3490
vn 0.9190 0.1030 -0.3806
vn 0.9237 0.0195 -0.3826
vn 0.3490 0.4102 0.8426
vn 0.3806 0.1030 0.9190
vn 0.3826 0.0195 0.9237
vn -0.3490 0.4102 0.8426
vn -0.3806 0.1030 0.9190
vn -0.3826 0.0195 0.9237
vn -0.2007 -0.9761 -0.0831
vn 0.0831 -0.9761 -0.2007
vn 0.2007 -0.9761 0.0831
vn -0.0831 -0.9761 -0.2007
vn -0.2007 -0.9761 0.0831
vn 0.2007 -0.9761 -0.0831
vn 0.0831 -0.9761 0.2007
vn -0.0831 -0.9761 0.2007
s 0
f 7//1 3//1 6//1
f 2//2 1//2 4//2 5//2
f 3//3 2//3 5//3 6//3
f 1//4 17//4 4//4
f 5//5 4//5 8//5 9//5
f 6//6 5//6 9//6 10//6
f 4//7 17//7 8//7
f 7//8 6//8 10//8
f 7//9 10//9 13//9
f 9//10 8//10 11//10 12//10
f 10//11 9//11 12//11 13//11
f 8//12 17//12 11//12
f 7//13 13//13 16//13
f 12//14 11//14 14//14 15//14
f 13//15 12//15 15//15 16//15
f 11//16 17//16 14//16
f 7//17 16//17 20//17
f 15//18 14//18 18//18 19//18
f 16//19 15//19 19//19 20//19
f 14//20 17//20 18//20
f 7//21 20//21 3//21
f 19//22 18//22 1//22 2//22
f 20//23 19//23 2//23 3//23
f 18//24 17//24 1//24
f 69//25 62//25 63//25 70//25
f 47//26 39//26 40//26 48//26
f 48//27 40//27 41//27 49//27
f 24//28 32//28 33//28 25//28
f 23//29 31//29 32//29 24//29
f 76//30 61//30 62//30 69//30
f 49//31 41//31 42//31 50//31
f 50//32 42//32 43//32 51//32
f 26//33 34//33 35//33 27//33
f 25//34 33//34 34//34 26//34
f 75//35 68//35 61//35 76//35
f 43//36 74//36 75//36 44//36
f 44//37 75//37 76//37 37//37
f 36//38 52//38 45//38 29//38
f 35//39 51//39 52//39 36//39
f 74//40 67//40 68//40 75//40
f 37//41 76//41 69//41 38//41
f 38//42 69//42 70//42 39//42
f 30//43 46//43 47//43 31//43
f 29//44 45//44 46//44 30//44
f 72//45 65//45 66//45 73//45
f 41//46 72//46 73//46 42//46
f 39//47 70//47 71//47 40//47
f 31//48 47//48 48//48 32//48
f 33//49 49//49 50//49 34//49
f 73//50 66//50 67//50 74//50
f 42//51 73//51 74//51 43//51
f 40//52 71//52 72//52 41//52
f 32//53 48//53 49//53 33//53
f 34//54 50//54 51//54 35//54
f 62//55 54//55 55//55 63//55
f 63//56 55//56 56//56 64//56
f 68//57 60//57 53//57 61//57
f 67//58 59//58 60//58 68//58
f 61//59 53//59 54//59 62//59
f 71//60 64//60 65//60 72//60
f 51//61 43//61 44//61 52//61
f 52//62 44//62 37//62 45//62
f 28//63 36//63 29//63 21//63
f 27//64 35//64 36//64 28//64
f 27//65 28//65 21//65 22//65 23//65 24//65 25//65 26//65
f 113//66 109//66 77//66 78//66
f 21//67 29//67 30//67 22//67
f 22//68 30//68 31//68 23//68
f 46//69 38//69 39//69 47//69
f 45//70 37//70 38//70 46//70
f 70//71 63//71 64//71 71//71
f 66//72 58//72 59//72 67//72
f 64//73 56//73 57//73 65//73
f 65//74 57//74 58//74 66//74
f 77//75 84//75 83//75 82//75 81//75 80//75 79//75 78//75
f 109//76 110//76 84//76 77//76
f 114//77 111//77 82//77 83//77
f 115//78 113//78 78//78 79//78
f 116//79 112//79 80//79 81//79
f 110//80 114//80 83//80 84//80
f 111//81 116//81 81//81 82//81
f 112//82 115//82 79//82 80//82
f 60//83 59//83 102//83 103//83
f 103//84 102//84 101//84 104//84
f 104//85 101//85 100//85 105//85
f 54//86 53//86 108//86 94//86
f 94//87 108//87 107//87 95//87
f 95//88 107//88 106//88 96//88
f 56//89 55//89 99//89 91//89
f 91//90 99//90 98//90 92//90
f 92//91 98//91 97//91 93//91
f 53//92 60//92 103//92 108//92
f 108//93 103//93 104//93 107//93
f 107//94 104//94 105//94 106//94
f 59//95 58//95 90//95 102//95
f 102//96 90//96 89//96 101//96
f 101//97 89//97 88//97 100//97
f 55//98 54//98 94//98 99//98
f 99//99 94//99 95//99 98//99
f 98//100 95//100 96//100 97//100
f 57//101 56//101 91//101 85//101
f 85//102 91//102 92//102 86//102
f 86//103 92//103 93//103 87//103
f 58//104 57//104 85//104 90//104
f 90//105 85//105 86//105 89//105
f 89//106 86//106 87//106 88//106
f 105//107 100//107 115//107 112//107
f 96//108 106//108 116//108 111//108
f 93//109 97//109 114//109 110//109
f 106//110 105//110 112//110 116//110
f 100//111 88//111 113//111 115//111
f 97//112 96//112 111//112 114//112
f 87//113 93//113 110//113 109//113
f 88//114 87//114 109//114 113//114
